<svg width="148" height="41" viewBox="0 0 148 41" fill="none" xmlns="http://www.w3.org/2000/svg">
<path d="M127.465 23.37L132.09 16.81H127.372L123.025 23.124V9.83997L118.585 10.25V30.012H123.025V23.616L127.557 30.012H132.275L127.465 23.37Z" fill="black"/>
<path d="M109.612 16.564C104.71 16.564 102.305 19.27 102.305 23.124V23.78C102.305 27.552 104.71 30.34 109.612 30.34C114.515 30.34 116.92 27.634 116.92 23.78V23.124C116.92 19.352 114.515 16.564 109.612 16.564ZM112.48 24.026C112.48 25.748 111.647 27.142 109.612 27.142C107.577 27.142 106.745 25.748 106.745 24.026V22.796C106.745 21.074 107.577 19.68 109.612 19.68C111.647 19.68 112.48 21.074 112.48 22.796V24.026Z" fill="black"/>
<path d="M93.61 16.564C88.7075 16.564 86.3025 19.27 86.3025 23.124V23.78C86.3025 27.552 88.7075 30.34 93.61 30.34C98.5125 30.34 100.917 27.634 100.917 23.78V23.124C100.917 19.352 98.5125 16.564 93.61 16.564ZM96.4775 24.026C96.4775 25.748 95.645 27.142 93.61 27.142C91.575 27.142 90.7425 25.748 90.7425 24.026V22.796C90.7425 21.074 91.575 19.68 93.61 19.68C95.645 19.68 96.4775 21.074 96.4775 22.796V24.026Z" fill="black"/>
<path d="M78.81 16.564C76.775 16.564 75.295 17.466 74.6475 18.696V9.83997L70.3 10.25V30.094H74.4625V28.126C75.11 29.438 76.59 30.422 78.81 30.422C82.88 30.422 84.8225 27.634 84.8225 23.944V23.124C84.8225 19.352 82.88 16.564 78.81 16.564ZM80.3825 23.944C80.3825 25.83 79.55 27.224 77.4225 27.224C75.5725 27.224 74.6475 26.076 74.6475 24.19V22.796C74.6475 20.91 75.665 19.762 77.4225 19.762C79.55 19.762 80.3825 21.156 80.3825 23.042V23.944Z" fill="black"/>
<path d="M61.8825 16.564C57.0725 16.564 54.6675 19.024 54.6675 22.796V23.944C54.6675 27.798 56.795 30.34 62.345 30.34C64.4725 30.34 66.8775 29.93 67.9875 29.356L67.155 26.65C65.86 27.142 64.1025 27.47 62.4375 27.47C59.94 27.47 59.1075 26.65 59.015 24.846H68.45V22.714C68.45 19.106 66.415 16.564 61.8825 16.564ZM64.4725 22.222H59.1075C59.1075 20.418 59.8475 19.352 61.8825 19.352C63.825 19.352 64.4725 20.5 64.4725 21.894V22.222Z" fill="black"/>
<path d="M50.135 19.68C51.3375 19.68 52.4475 20.008 53.095 20.254L54.1125 17.466C53.1875 16.892 51.615 16.564 49.8575 16.564C44.6775 16.564 42.2725 19.106 42.2725 23.124V23.78C42.2725 27.798 44.6775 30.34 49.8575 30.34C51.615 30.34 53.1875 30.012 54.1125 29.438L53.095 26.65C52.4475 26.978 51.3375 27.224 50.135 27.224C47.73 27.224 46.7125 25.994 46.7125 23.862V23.124C46.7125 20.91 47.8225 19.68 50.135 19.68Z" fill="black"/>
<path d="M36.445 18.86C35.7975 17.548 34.41 16.564 32.19 16.564C28.12 16.564 26.1775 19.352 26.1775 23.042V23.862C26.1775 27.552 28.12 30.34 32.19 30.34C34.41 30.34 35.7975 29.356 36.445 28.044V30.012H40.7V16.81H36.445V18.86ZM36.26 24.108C36.26 25.994 35.335 27.142 33.485 27.142C31.45 27.142 30.6175 25.83 30.6175 23.862V22.96C30.6175 20.992 31.45 19.68 33.485 19.68C35.335 19.68 36.26 20.91 36.26 22.796V24.108Z" fill="black"/>
<path d="M17.76 14.842V16.81H14.8V20.09H17.76V30.012H22.2V20.09H25.53L25.9 16.81H22.2V14.842C22.2 13.612 22.57 13.038 23.9575 13.038H25.9V10.004C25.345 9.92197 24.235 9.83997 23.4025 9.83997C19.24 9.83997 17.76 11.562 17.76 14.842Z" fill="black"/>
</svg>
