<svg width="161" height="41" viewBox="0 0 161 41" fill="none" xmlns="http://www.w3.org/2000/svg">
<path d="M114.411 18.3679C113.606 19.1059 113.103 20.1719 113.103 21.4019V30.7499H109.078V14.3499H113.002V16.3999C113.505 15.7439 114.109 15.1699 114.914 14.8419C115.719 14.4319 116.624 14.2679 117.731 14.2679H119.14V17.2199H117.429C116.323 17.2199 115.316 17.6299 114.411 18.3679Z" fill="black"/>
<path d="M87.3425 19.27C87.8456 18.204 88.55 17.302 89.5563 16.564C90.5625 15.826 91.5688 15.17 92.8769 14.678C94.185 14.186 95.4931 14.022 97.0025 14.022C98.4113 14.022 99.82 14.268 101.028 14.678C102.235 15.088 103.342 15.744 104.248 16.482C105.153 17.22 105.858 18.122 106.361 19.188C106.864 20.254 107.065 21.402 107.065 22.55V23.616H90.5625C90.6631 24.272 90.965 24.928 91.3675 25.502C91.77 26.076 92.2731 26.568 92.8769 26.978C93.4806 27.388 94.185 27.716 94.8894 27.962C95.5938 28.208 96.3988 28.29 97.3044 28.29C99.7194 28.29 101.631 27.47 103.141 25.912L106.059 27.634C105.053 28.7 103.845 29.602 102.336 30.176C100.826 30.832 99.2163 31.078 97.3044 31.078C95.795 31.078 94.3863 30.832 93.0781 30.422C91.77 30.012 90.6631 29.356 89.6569 28.618C88.6506 27.88 87.9463 26.896 87.3425 25.912C86.8394 24.928 86.5375 23.78 86.5375 22.55C86.5375 21.402 86.7388 20.254 87.3425 19.27ZM92.8769 17.958C91.77 18.696 90.965 19.762 90.6631 20.992H102.939C102.638 19.762 101.833 18.696 100.726 17.958C99.6188 17.22 98.3106 16.81 96.8013 16.81C95.2919 16.81 93.9838 17.22 92.8769 17.958Z" fill="black"/>
<path d="M67.3181 8.19995V16.4C68.2238 15.662 69.3306 15.088 70.5381 14.596C71.7456 14.186 73.0538 13.94 74.4625 13.94C75.9719 13.94 77.28 14.186 78.5881 14.596C79.8963 15.088 81.0031 15.662 81.9088 16.4C82.8144 17.138 83.6194 18.122 84.1225 19.106C84.7263 20.172 84.9275 21.238 84.9275 22.468C84.9275 23.616 84.6256 24.764 84.1225 25.83C83.5188 26.896 82.8144 27.798 81.9088 28.536C81.0031 29.274 79.7956 29.93 78.5881 30.34C77.28 30.914 75.9719 31.16 74.4625 31.16C73.0538 31.16 71.7456 30.914 70.5381 30.504C69.3306 30.094 68.2238 29.438 67.3181 28.7V30.75H63.3938V8.19995H67.3181ZM67.7206 24.764C68.1231 25.42 68.5256 26.076 69.23 26.568C69.9344 27.06 70.6388 27.47 71.4438 27.798C72.2488 28.126 73.1544 28.29 74.1606 28.29C75.0663 28.29 75.9719 28.126 76.8775 27.798C77.7831 27.47 78.4875 27.06 79.0913 26.568C79.695 26.076 80.1981 25.42 80.6006 24.764C81.0031 24.108 81.2044 23.37 81.2044 22.55C81.2044 21.73 81.0031 20.992 80.6006 20.336C80.1981 19.598 79.695 19.024 79.0913 18.532C78.4875 18.04 77.7831 17.63 76.8775 17.302C76.0725 16.974 75.1669 16.892 74.1606 16.892C73.1544 16.892 72.3494 17.056 71.4438 17.302C70.6388 17.63 69.8338 17.958 69.23 18.532C68.6263 19.024 68.1231 19.68 67.7206 20.336C67.3181 21.074 67.1169 21.812 67.1169 22.55C67.2175 23.37 67.4188 24.108 67.7206 24.764Z" fill="black"/>
<path d="M42.8663 24.6C43.1681 25.338 43.6713 25.994 44.275 26.486C44.8788 26.978 45.5831 27.388 46.3881 27.716C47.1931 27.962 48.0988 28.126 49.105 28.126C50.0106 28.126 50.9163 27.962 51.8219 27.716C52.6269 27.388 53.3313 26.978 54.0356 26.486C54.6394 25.994 55.1425 25.338 55.4444 24.6C55.7463 23.862 55.9475 23.042 55.9475 22.14V8.19995H60.0731V30.75H55.9475V28.7C55.0419 29.52 53.935 30.094 52.7275 30.504C51.52 30.914 50.1113 31.16 48.7025 31.16C47.1931 31.16 45.885 30.914 44.5769 30.504C43.2688 30.094 42.1619 29.52 41.2563 28.7C40.3506 27.962 39.5456 26.978 39.0425 25.912C38.5394 24.846 38.2375 23.616 38.2375 22.304V8.19995H42.3631V22.14C42.3631 23.042 42.5644 23.862 42.8663 24.6Z" fill="black"/>
</svg>
