<svg width="137" height="41" viewBox="0 0 137 41" fill="none" xmlns="http://www.w3.org/2000/svg">
<path d="M110.627 27.388C108.829 27.388 107.631 26.65 106.774 25.174L117.306 21.074L116.964 20.254C116.279 18.614 114.309 15.58 110.199 15.58C106.175 15.58 102.75 18.532 102.75 22.96C102.75 27.06 106.089 30.34 110.542 30.34C114.138 30.34 116.279 28.29 117.135 27.06L114.481 25.42C113.539 26.568 112.34 27.388 110.627 27.388ZM110.285 18.368C111.655 18.368 112.854 19.024 113.196 19.926L106.175 22.632C106.089 19.844 108.573 18.368 110.285 18.368Z" fill="black"/>
<path d="M101.038 8.19995H97.6125V29.8479H101.038V8.19995Z" fill="black"/>
<path d="M91.79 15.99V17.22H91.7044C90.9338 16.318 89.3925 15.58 87.5944 15.58C83.6556 15.58 80.0594 18.86 80.0594 22.96C80.0594 27.06 83.6556 30.34 87.5944 30.34C89.4781 30.34 90.9338 29.52 91.7044 28.7H91.79V29.766C91.79 32.554 90.1631 34.112 87.5944 34.112C85.4538 34.112 84.1694 32.718 83.6556 31.488L80.6588 32.636C81.515 34.604 83.8269 36.982 87.68 36.982C91.7044 36.982 95.215 34.768 95.215 29.274V15.99H91.79ZM87.8513 27.388C85.4538 27.388 83.4844 25.502 83.4844 22.96C83.4844 20.336 85.4538 18.45 87.8513 18.45C90.2488 18.45 92.0469 20.336 92.0469 22.96C92.0469 25.502 90.1631 27.388 87.8513 27.388Z" fill="black"/>
<path d="M70.7263 15.498C66.3594 15.498 62.8488 18.614 62.8488 22.878C62.8488 27.142 66.3594 30.258 70.7263 30.258C75.0931 30.258 78.6038 27.142 78.6038 22.878C78.6038 18.614 75.0931 15.498 70.7263 15.498ZM70.7263 27.388C68.3288 27.388 66.2738 25.584 66.2738 22.96C66.2738 20.336 68.3288 18.532 70.7263 18.532C73.1238 18.532 75.1788 20.336 75.1788 22.96C75.1788 25.502 73.1238 27.388 70.7263 27.388Z" fill="black"/>
<path d="M53.5156 15.498C49.1487 15.498 45.6381 18.614 45.6381 22.878C45.6381 27.142 49.1487 30.258 53.5156 30.258C57.8825 30.258 61.3931 27.142 61.3931 22.878C61.3931 18.614 57.8825 15.498 53.5156 15.498ZM53.5156 27.388C51.1181 27.388 49.0631 25.584 49.0631 22.96C49.0631 20.336 51.1181 18.532 53.5156 18.532C55.9131 18.532 57.9681 20.336 57.9681 22.96C57.9681 25.502 55.9131 27.388 53.5156 27.388Z" fill="black"/>
<path d="M32.9656 30.258C26.2013 30.258 20.55 25.174 20.55 18.86C20.55 12.546 26.2013 7.38 32.9656 7.38C36.7331 7.38 39.3875 8.774 41.3569 10.496L38.9594 12.71C37.5038 11.48 35.62 10.496 32.9656 10.496C28.085 10.496 24.2319 14.186 24.2319 18.86C24.2319 23.534 28.085 27.142 33.0513 27.142C36.2194 27.142 38.1031 25.912 39.2163 24.846C40.1581 23.944 40.7575 22.632 41.0144 20.91H32.88V17.794H44.2681C44.3538 18.368 44.4394 19.024 44.4394 19.762C44.4394 22.14 43.7544 25.01 41.5281 27.06C39.3875 29.192 36.6475 30.258 32.9656 30.258Z" fill="black"/>
</svg>
