<svg width="134" height="41" viewBox="0 0 134 41" fill="none" xmlns="http://www.w3.org/2000/svg">
<path d="M93.0211 29.4709C92.8336 29.9264 92.7042 30.4029 92.6359 30.8895C92.2506 33.5053 93.6576 33.9071 94.738 33.7103C95.9842 33.2215 97.0968 32.4551 97.9875 31.4717C97.7781 32.2343 97.8367 33.5955 98.959 33.7349C99.6855 33.7751 100.402 33.5567 100.977 33.1199C103.364 31.8735 106.237 27.7079 106.974 26.5025H106.002C104.947 28.0359 103.599 30.0449 101.907 30.9961C101.614 31.1929 101.195 31.0453 101.354 30.6025C101.893 29.4138 102.534 28.2726 103.272 27.1913L107.535 19.9261H104.612L104.177 20.6477C103.981 20.3445 103.744 20.0686 103.473 19.8277C102.662 19.4576 101.714 19.5195 100.961 19.9917C97.82 21.7547 95.5252 25.2479 93.7162 27.9621C93.4507 28.4494 93.2185 28.9535 93.0211 29.4709ZM98.0461 30.2171L97.7697 30.4549C97.3677 30.7993 96.9322 31.1683 96.4549 30.9879C96.3118 30.9139 96.2149 30.7761 96.1952 30.6189C96.2602 29.6336 96.5645 28.6777 97.083 27.8309L97.2002 27.6013C98.49 25.5349 99.9891 23.0913 102.225 21.4021C102.542 21.1007 102.997 20.9853 103.423 21.0987C103.545 21.1968 103.624 21.3382 103.641 21.4923C103.628 21.5671 103.603 21.6392 103.565 21.7055C102.954 22.6649 102.368 23.6653 101.798 24.6247C100.708 26.5874 99.4529 28.458 98.0461 30.2171Z" fill="black"/>
<path d="M88.1134 26.1909L87.7365 27.2733C86.7399 30.0777 86.2792 31.9883 87.2172 33.1199C88.5656 34.7107 90.7934 33.0625 92.6024 30.8813L93.7079 27.9703C93.7079 27.9703 91.8067 30.9961 90.7515 31.2503C89.914 31.3159 90.0145 30.2499 90.048 29.9957C90.416 28.241 91.0216 26.5423 91.8486 24.9445C93.5564 23.8115 95.1695 22.5475 96.6726 21.1643C99.1728 18.9103 101.419 16.4004 103.373 13.6777C103.046 13.7376 102.716 13.7732 102.384 13.7843C99.7546 17.3021 94.3779 22.4189 92.7447 23.1815C93.465 21.5415 98.1382 13.5547 102.108 9.74166L102.728 9.16766C103.749 8.20006 104.746 7.30626 105.525 7.15046C105.6 7.15046 105.709 7.15046 105.801 7.33906C105.799 7.98513 105.607 8.61689 105.249 9.15946L104.813 10.0287C105.161 9.96399 105.504 9.88188 105.843 9.78266C106.462 8.9165 106.757 7.86849 106.681 6.81426C106.624 6.45484 106.342 6.1693 105.977 6.10086C104.788 5.88766 103.465 6.73226 102.46 7.41286C97.0495 11.4801 92.5437 17.2201 88.5991 25.1495C88.1164 25.4025 87.5712 25.5189 87.0246 25.4857C86.7608 25.8865 86.609 26.2024 86.5144 26.3795C87.0736 26.358 87.5974 26.2949 88.1134 26.1909Z" fill="black"/>
<path d="M87.0246 25.4856C87.5195 24.5584 87.8964 23.5752 88.1469 22.5582C88.1955 22.2377 88.2235 21.9145 88.2306 21.5906C88.2868 20.8906 87.9702 20.2117 87.3931 19.7948C86.6451 19.5028 85.8061 19.5325 85.0816 19.8768C82.2592 21.0002 80.1571 23.7718 78.6329 26.0596C77.7069 27.5252 77.0758 29.1507 76.7736 30.8484C76.6145 32.2424 76.9411 33.1444 77.7702 33.5872C78.5449 33.8502 79.3981 33.7693 80.1069 33.3658C82.9627 31.9226 84.956 29.028 86.5305 26.3794L87.0246 25.4856ZM80.4 30.7172C80.2594 30.5084 80.1891 30.2618 80.199 30.012C80.199 28.4376 81.9326 25.625 83.1721 24.0916C83.7113 25.0388 84.5655 25.7767 85.5925 26.1826C84.7299 28.0768 81.6981 32.1276 80.4 30.7172ZM86.0782 25.338C85.172 25.1451 84.4533 24.47 84.219 23.5914C84.0887 22.5697 84.6377 21.5803 85.5841 21.1314C85.9345 20.8757 86.3863 20.7939 86.8069 20.91C87.131 21.1642 87.2987 21.5639 87.2507 21.9678C87.2476 22.2423 87.2252 22.5163 87.1837 22.7878V22.8452C86.9368 23.7176 86.5765 24.5554 86.1117 25.338H86.0782Z" fill="black"/>
<path d="M108.791 9.01999C110.375 8.14197 111.814 7.03633 113.063 5.73999C112.196 7.40326 111.014 8.88943 109.579 10.1188C107.368 12.0212 103.507 14.022 99.83 13.12C100.5 12.2426 101.187 11.48 101.915 10.66C104.327 10.8455 106.737 10.2708 108.791 9.01999ZM94.068 6.92079C95.475 7.65059 96.8485 8.38859 98.1885 9.20039L99.026 9.68419C98.49 10.209 97.4348 11.2504 96.815 11.9392C95.5504 11.4144 91.79 8.64279 90.0229 8.08519C90.0229 8.08519 87.7784 7.09299 86.6729 7.65059C86.6729 7.84739 86.6729 8.10159 86.6729 8.29019C86.5801 9.85414 86.1247 11.3768 85.3413 12.7428C84.1185 14.637 82.6278 16.7034 80.3163 17.22C79.7144 17.3343 79.1059 17.0562 78.8088 16.5312C78.1388 15.3668 78.8088 14.0384 79.2861 13.0626C80.6305 10.5807 82.6624 8.52017 85.1486 7.11759C84.367 6.87668 83.5176 6.97206 82.812 7.37999C78.6077 9.39719 75.4839 13.12 72.6448 16.7936C69.8978 20.7214 67.9799 24.1654 67.536 28.2162C67.3278 29.4 67.8369 30.595 68.8425 31.283C70.35 32.144 72.025 31.0206 73.1138 30.1186C74.5037 28.8936 75.6557 27.4323 76.514 25.8054C77.6446 23.6242 77.9294 21.3692 77.0919 21.0986C76.1204 20.8034 75.2577 21.8284 74.8222 22.4434C74.1252 23.381 73.6607 24.4647 73.4655 25.6086C72.0194 26.2819 70.7242 27.2296 69.6549 28.3966C69.8098 26.9493 70.2059 25.5365 70.8274 24.2146C71.9999 21.6234 74.236 19.8194 76.5224 19.6226C77.2203 19.5526 77.8888 19.9159 78.1974 20.5328C78.8088 21.771 78.4151 23.3946 78.0634 24.5344C76.6824 28.2892 73.9321 31.4113 70.3416 33.3002C68.8258 33.8906 66.6734 34.2514 65.0486 32.6114C63.1475 30.6598 63.382 27.429 64.1609 25.2314C65.1743 21.9678 67.0754 18.6714 70.1406 14.842C74.3114 9.96299 78.2057 7.14219 82.3932 5.99419C83.5574 5.73999 85.1403 5.62519 86.1201 6.63379L87.1 6.30579C89.4031 5.5056 91.9482 5.73024 94.068 6.92079ZM85.76 8.42139H85.7265C85.7591 8.25343 85.7591 8.08095 85.7265 7.91299C83.1222 9.29963 81.0432 11.4704 79.797 14.104C78.9093 16.1212 79.9059 16.3672 80.4838 16.2524C81.4469 16.031 85.3245 13.2184 85.76 8.42139Z" fill="black"/>
<path d="M65.0403 15.4324H67.7789L69.3283 13.0216H66.5896L65.0403 15.4324Z" fill="black"/>
<path d="M51.0372 20.9511C50.553 21.7846 50.1627 22.6672 49.8731 23.5833C49.1361 26.0433 50.1327 26.5927 50.7609 26.7813C52.662 27.3143 54.9484 24.6657 54.9484 24.6657C54.8897 25.4857 54.7222 26.1909 55.6351 26.7403C56.4852 26.919 57.3719 26.7043 58.0387 26.1581C60.434 24.5181 62.3602 22.0089 63.9012 19.8195H62.9046C62.9046 19.8195 60.4591 23.2143 58.8679 23.9195C58.8679 23.9195 58.5831 24.0589 58.4156 23.9195C58.2481 23.7801 58.29 23.4029 58.4156 23.1569L64.5294 12.9643H61.6484L61.305 13.4891C61.305 13.4891 61.2464 13.3907 61.2129 13.3497C59.4206 10.9717 55.3504 14.6207 52.327 18.8601C51.8572 19.5327 51.4265 20.2308 51.0372 20.9511ZM56.6401 21.2709L56.2046 21.9105C55.6624 22.8174 54.8927 23.5738 53.9685 24.1081C53.7905 24.1648 53.5966 24.147 53.4325 24.0589C53.2506 23.9443 53.1552 23.735 53.1896 23.5259C53.2482 22.8371 54.0271 20.7297 56.2381 17.7859C56.7992 17.0397 58.4324 15.0471 58.826 14.7027C60.166 13.5793 60.702 14.0713 60.7522 14.4239C59.5044 16.5969 58.022 19.0569 56.6401 21.2709Z" fill="black"/>
<path d="M41.6572 19.0732C42.1464 18.9885 42.6302 18.8762 43.1061 18.737C43.1061 18.737 41.0375 22.14 41.2134 23.8374C41.2804 24.354 41.2134 26.2318 43.1312 26.7976C45.6437 27.2076 47.704 25.3134 49.4962 23.6324C49.4962 23.6324 49.8061 23.3536 49.9736 23.1896L52.327 18.9174C51.1201 20.6607 49.7153 22.2645 48.1395 23.698C48.1395 23.698 45.8447 25.7152 44.8649 24.2638C44.5713 23.602 44.5562 22.8536 44.823 22.181C45.8601 19.2001 47.7074 16.5523 50.1662 14.5222C50.6041 14.0926 51.2484 13.9349 51.8412 14.1122C52.1578 14.332 52.2327 14.7613 52.0087 15.0716C51.5347 15.0355 51.0686 15.2066 50.7357 15.539C50.1359 15.9942 49.8667 16.7529 50.049 17.4742C51.0791 18.8846 53.1394 16.0966 53.0389 14.391C53.0089 13.7903 52.6804 13.242 52.1595 12.9232C51.3212 12.5381 50.3513 12.5381 49.513 12.9232C48.1736 13.5815 46.9742 14.4831 45.9787 15.58C44.823 16.81 42.8381 18.1712 42.2184 18.04C42.0728 18.2644 41.8774 18.6307 41.6321 19.1388L41.6572 19.0732Z" fill="black"/>
<path d="M42.3356 12.9315C40.602 11.8409 37.118 13.9401 34.3375 17.5071C31.7831 20.7133 30.686 24.4443 31.8836 26.1663C33.6675 28.1917 36.9756 25.2397 38.3826 23.6653L38.5585 23.4767C39.4765 22.4682 40.2848 21.369 40.9705 20.1967L41.6572 19.1061L42.2184 18.0155C42.4194 17.4661 44.0944 14.1697 42.3356 12.9315ZM40.5434 19.1963L39.2871 21.1643C38.538 22.2803 37.5526 23.2255 36.3977 23.9359C36.0544 24.0507 35.5602 24.1245 35.3174 23.8211C34.7981 23.2225 35.0661 22.3861 35.3174 21.7137L35.4011 21.4759C36.0607 19.8972 36.9309 18.4111 37.989 17.0561H38.0392C38.6139 18.0014 39.5524 18.681 40.6439 18.9421C40.6313 18.9819 40.5978 19.0667 40.5434 19.1963ZM41.7326 16.7855L41.1799 18.0155C41.1799 18.0155 40.9705 18.0155 40.8281 18.0155L40.5769 17.9745C39.871 17.809 39.2924 17.316 39.0275 16.6543C38.7762 15.4981 39.8064 14.5961 40.2586 14.2681C40.6862 13.937 41.2714 13.8794 41.7577 14.1205C41.9925 14.4048 42.1118 14.764 42.0927 15.1291C42.0631 15.6964 41.9415 16.2555 41.7326 16.7855Z" fill="black"/>
<path d="M56.8327 30.7746C53.4325 28.6754 48.8262 28.3146 41.3892 30.2826C33.5 32.0784 30.82 33.2182 27.3527 30.9222C26.0127 29.7906 25.5354 27.9702 25.8955 25.3462C26.733 21.074 28.9607 16.9576 32.9305 12.3984C35.175 10.0286 37.2101 7.98684 39.9236 7.16684C42.009 6.65844 41.8164 8.22464 41.5986 8.45424C41.2274 8.4455 40.8604 8.53321 40.535 8.70844C39.9389 9.13453 39.5458 9.77999 39.4462 10.496C39.3876 11.8818 40.8867 11.5948 41.5316 10.8322C42.1765 10.0696 43.2485 8.37224 42.4445 6.79784C42.0655 6.22918 41.4556 5.847 40.7695 5.74824C38.257 5.61704 35.9622 6.75684 33.8266 8.01144C29.2285 11.033 25.578 15.2459 23.2825 20.1802C22.0597 23.042 20.9375 27.1256 22.6125 30.4548C23.8939 32.7672 26.5487 33.989 29.7229 33.7348C31.981 33.4216 34.2182 32.978 36.4229 32.4064C38.2319 31.9882 47.4862 28.9296 50.5264 34.2514C51.2807 33.0456 52.6248 32.3145 54.069 32.3244C56.6646 32.2217 59.2216 32.9658 61.3385 34.44C60.0458 32.9908 58.5247 31.7534 56.8327 30.7746Z" fill="black"/>
</svg>
