<svg width="156" height="41" viewBox="0 0 156 41" fill="none" xmlns="http://www.w3.org/2000/svg">
<path fill-rule="evenodd" clip-rule="evenodd" d="M31.4158 28.3568C31.6546 28.463 31.9611 28.4516 32.1729 28.2925L32.1819 28.3C32.8218 27.8224 33.9846 26.9696 34.638 26.511C34.8994 26.329 34.8544 26.0372 34.6471 25.7947C34.5842 25.7215 34.521 25.6498 34.4583 25.5787C33.935 24.9856 33.4393 24.4237 33.4393 23.2969V19.0972C33.4393 18.9538 33.4403 18.8113 33.4412 18.6698C33.4522 17.0586 33.4622 15.5872 32.0287 14.4617C30.7983 13.4687 28.7613 13.12 27.202 13.12C24.1554 13.12 20.7529 14.0751 20.0363 17.2438C19.9642 17.5811 20.2526 17.7593 20.514 17.8086L23.6236 18.089C23.9121 18.0777 24.1239 17.8389 24.178 17.5963C24.4439 16.5047 25.5345 15.9779 26.7558 15.9779C27.4138 15.9779 28.1619 16.1825 28.554 16.6791C28.9544 17.1756 28.9483 17.8371 28.9428 18.4305C28.9422 18.4983 28.9416 18.5653 28.9416 18.631V18.9797C28.6416 19.0085 28.3267 19.0356 28.0021 19.0636C26.3179 19.2085 24.3746 19.3757 22.9161 19.9159C20.9106 20.6437 19.5 22.1333 19.5 24.3202C19.5 27.1212 21.6001 28.5198 24.2951 28.5198C26.5755 28.5198 27.8194 28.0688 29.577 26.5603C29.6697 26.6725 29.7525 26.7755 29.8304 26.8725C30.2447 27.3882 30.5205 27.7316 31.4158 28.3568ZM28.9417 21.867C28.9416 21.8196 28.9416 21.772 28.9416 21.7239V21.1402C26.6251 21.1402 24.178 21.5571 24.178 23.854C24.178 25.0176 24.8945 25.8061 26.1249 25.8061C27.0262 25.8061 27.8329 25.3398 28.3422 24.5818C28.9442 23.692 28.9431 22.8541 28.9417 21.867Z" fill="#B2C0D6"/>
<path fill-rule="evenodd" clip-rule="evenodd" d="M74.1799 28.2925C73.9682 28.4516 73.6617 28.463 73.4228 28.3568C72.5177 27.7246 72.2425 27.3806 71.8222 26.8552C71.7488 26.7634 71.6706 26.6657 71.5841 26.5603C69.8265 28.0688 68.5781 28.5198 66.3022 28.5198C63.6027 28.5198 61.5071 27.1212 61.5071 24.3202C61.5071 22.1333 62.9132 20.6437 64.9232 19.9159C66.3817 19.3757 68.325 19.2085 70.0092 19.0636C70.3338 19.0356 70.6487 19.0085 70.9487 18.9797V18.631C70.9487 18.5658 70.9493 18.4994 70.9499 18.4321C70.9553 17.8383 70.9614 17.1761 70.5565 16.6791C70.169 16.1825 69.4209 15.9779 68.7583 15.9779C67.5371 15.9779 66.4509 16.5047 66.185 17.5963C66.131 17.8389 65.9191 18.0777 65.6263 18.089L62.5211 17.8086C62.2597 17.7593 61.9668 17.5811 62.0434 17.2438C62.7555 14.0751 66.1625 13.12 69.2091 13.12C70.7684 13.12 72.8054 13.4687 74.0357 14.4617C75.4693 15.5872 75.4592 17.0586 75.4483 18.6698C75.4473 18.8113 75.4464 18.9538 75.4464 19.0972V23.2969C75.4464 24.4237 75.942 24.9856 76.4653 25.5787C76.5281 25.6498 76.5913 25.7215 76.6542 25.7947C76.857 26.0372 76.902 26.329 76.6406 26.511C75.9872 26.9696 74.8244 27.8224 74.1844 28.3L74.1799 28.2925ZM70.9488 21.867C70.9502 22.8541 70.9513 23.692 70.3493 24.5818C69.84 25.3398 69.0288 25.8061 68.1319 25.8061C66.9017 25.8061 66.1805 25.0176 66.1805 23.854C66.1805 21.5571 68.6277 21.1402 70.9487 21.1402L70.9488 21.867Z" fill="#B2C0D6"/>
<path d="M37.7206 28.3304H40.9249C41.2675 28.3304 41.5423 28.1068 41.5423 27.83V20.4997L41.5421 20.3252C41.539 18.7442 41.5349 16.6867 43.7552 16.6867C45.7988 16.6867 45.7639 18.5173 45.7355 20.0078C45.7323 20.1772 45.7291 20.3422 45.7291 20.4997L45.7336 27.83C45.7336 28.0954 45.986 28.3114 46.3105 28.3304H49.5102C49.8527 28.3304 50.1277 28.1068 50.1277 27.83V20.4997C50.1277 20.4653 50.1276 20.4303 50.1275 20.3945C50.1274 20.3668 50.1274 20.3386 50.1273 20.3101C50.125 19.5365 50.1217 18.4933 50.4251 17.8503C50.7541 17.1529 51.5653 16.717 52.3404 16.717C53.2688 16.717 53.9854 16.9785 54.2242 17.9071C54.3476 18.3526 54.3308 19.3824 54.3195 20.0717C54.3168 20.2384 54.3144 20.386 54.3144 20.4997V27.83C54.3144 28.0954 54.5712 28.3114 54.8912 28.3304H58.091C58.4335 28.3304 58.7085 28.1068 58.7085 27.83L58.7129 19.1011C58.7129 18.8883 58.7172 18.6712 58.7215 18.452C58.7473 17.1447 58.7746 15.7614 57.9062 14.765C57.0094 13.7189 55.5402 13.2527 54.1972 13.2527C52.3089 13.2527 50.5467 14.0676 49.7716 15.8149C48.8703 14.0676 47.6174 13.2527 45.6119 13.2527C43.638 13.2527 42.1733 14.0676 41.3936 15.8149H41.335V14.0069C41.3125 13.7568 41.0647 13.5559 40.7536 13.5445H37.7658C37.4232 13.5445 37.1483 13.7644 37.1483 14.0411V27.8717C37.1708 28.1181 37.4142 28.3114 37.7206 28.3304Z" fill="#B2C0D6"/>
<path d="M79.3447 15.9854V14.0069C79.3447 13.7075 79.6151 13.5066 79.9396 13.5066H90.4717C90.8098 13.5066 91.0802 13.7113 91.0802 14.0069V15.7012C91.0756 15.9854 90.7917 16.3569 90.287 16.9444L84.8294 23.4977C86.8574 23.456 88.9981 23.71 90.8369 24.5818C91.2514 24.7788 91.3641 25.0669 91.3956 25.3512V27.4624C91.3956 27.7504 91.0171 28.0878 90.6205 27.9134C87.3802 26.4844 83.0762 26.329 79.4934 27.9285C79.1284 28.0953 78.7453 27.7617 78.7453 27.4737V25.4687C78.7453 25.1465 78.7498 24.5969 79.1329 24.108L85.4558 16.482H79.9531C79.6151 16.482 79.3447 16.2811 79.3447 15.9854Z" fill="#B2C0D6"/>
<path d="M79.2427 31.0332C81.1962 30.8384 85.4692 30.4121 86.231 31.2336C87.0011 32.0632 85.3766 35.4747 84.6504 36.9998L84.6491 37.0024C84.4283 37.4649 84.9014 37.6505 85.3972 37.3019C88.6285 35.0315 89.4577 30.2747 88.7998 29.5887C88.1418 28.9065 82.4994 28.3189 79.0608 30.3543C78.5289 30.6651 78.6191 31.0972 79.2095 31.0366L79.2427 31.0332Z" fill="#B2C0D6"/>
<path d="M61.4846 39.36C68.9928 39.36 77.7133 37.3701 83.7297 33.6405C84.7257 33.0189 83.874 32.0941 82.8554 32.4579C76.1134 34.8648 68.781 36.0246 62.1155 36.0246C52.2323 36.0246 42.6645 33.7466 34.9264 29.9602C34.2505 29.6266 33.7457 30.2103 34.3091 30.6386C41.4792 36.0853 50.9569 39.36 61.4846 39.36Z" fill="#B2C0D6"/>
<path d="M100.148 13.2527C104.902 13.2527 107.476 16.6867 107.476 21.0531C107.476 25.2716 104.632 28.6184 100.148 28.6184C95.4787 28.6184 92.9369 25.1844 92.9369 20.9052C92.9369 16.5995 95.5103 13.2527 100.148 13.2527ZM100.175 16.0764C97.8132 16.0764 97.6645 18.7827 97.6645 20.4693V20.5314C97.6641 22.2465 97.6633 25.7681 100.148 25.7681C102.631 25.7681 102.748 22.8572 102.748 21.0834C102.748 19.916 102.689 18.5212 102.27 17.4144C101.91 16.4517 101.193 16.0764 100.175 16.0764Z" fill="#B2C0D6"/>
<path d="M110.45 28.3304H113.641C113.983 28.3304 114.263 28.1068 114.267 27.83V20.3822C114.267 19.4498 114.326 18.6083 114.777 17.7631C115.132 17.096 115.849 16.6563 116.629 16.6563C118.671 16.6563 118.652 18.5419 118.637 20.0214C118.635 20.145 118.634 20.2656 118.634 20.3822V27.8945C118.665 28.1295 118.909 28.3114 119.203 28.3304H122.415C122.731 28.3304 122.997 28.137 123.032 27.8945V19.1882C123.032 17.8503 123.032 15.9893 122.195 14.8825C121.293 13.6886 119.892 13.2527 118.454 13.2527C116.241 13.2527 114.984 14.1548 114.087 16.0461H114.028V13.9311C113.965 13.7151 113.735 13.5559 113.456 13.5445H110.486C110.162 13.5445 109.896 13.7416 109.869 13.9956L109.873 27.83C109.873 28.0954 110.13 28.3114 110.45 28.3304Z" fill="#B2C0D6"/>
</svg>
