<svg width="141" height="41" viewBox="0 0 141 41" fill="none" xmlns="http://www.w3.org/2000/svg">
<path d="M51.5996 26.1505L52.8465 23.4438C54.2119 24.3827 55.9931 24.8798 57.774 24.8798C59.0801 24.8798 59.9114 24.4103 59.9114 23.6922C59.8816 21.7036 52.045 23.2503 51.9856 18.2508C51.9559 15.7099 54.39 13.7487 57.8335 13.7487C59.8816 13.7487 61.9299 14.2184 63.3844 15.2957L62.2192 18.0602C60.8809 17.261 59.2285 16.7041 57.6553 16.7041C56.5865 16.7041 55.8742 17.1736 55.8742 17.7813C55.9039 19.7424 63.8001 18.6652 63.8892 23.4438C63.8892 26.0402 61.5142 27.8629 58.1302 27.8629C55.6369 27.8629 53.3511 27.3109 51.5996 26.1505Z" fill="black"/>
<path d="M101.252 22.4636C100.63 23.4856 99.4516 24.1754 98.0991 24.1754C96.0991 24.1754 94.4778 22.667 94.4778 20.8061C94.4778 18.9449 96.0991 17.4361 98.0991 17.4361C99.4516 17.4361 100.63 18.1261 101.252 19.148L104.718 17.3611C103.42 15.206 100.943 13.7488 98.0991 13.7488C93.9105 13.7488 90.5149 16.9082 90.5149 20.8061C90.5149 24.7035 93.9105 27.8632 98.0991 27.8632C100.943 27.8632 103.42 26.4056 104.718 24.2506L101.252 22.4636Z" fill="black"/>
<path d="M66.139 27.5869H70.473V7.87427H66.139V27.5869Z" fill="black"/>
<path d="M106.907 7.87427V27.5869H111.241V21.6809L116.377 27.5869H121.917L115.386 20.5708L121.442 14.0242H116.139L111.241 19.4667V7.87427H106.907Z" fill="black"/>
<path d="M83.8249 15.6269V14.0249H88.1588V27.5868H83.8249V25.9847C83.1125 27.0896 81.361 27.8632 79.5207 27.8632C75.721 27.8632 72.723 24.7144 72.723 20.792C72.723 16.87 75.721 13.7488 79.5207 13.7488C81.361 13.7488 83.1125 14.522 83.8249 15.6269ZM80.4409 24.1754C81.8954 24.1754 83.2013 23.4576 83.8249 22.4908V19.1762C83.2013 18.182 81.8954 17.4361 80.4409 17.4361C78.4407 17.4361 76.8193 18.9449 76.8193 20.8061C76.8193 22.667 78.4407 24.1754 80.4409 24.1754Z" fill="black"/>
<path d="M28.712 7.43848C27.3075 7.43848 26.169 8.49788 26.169 9.80478C26.169 11.1117 27.3075 12.1711 28.712 12.1711H31.2551V9.80478C31.2551 8.49788 30.1165 7.43848 28.712 7.43848Z" fill="black"/>
<path d="M28.712 13.7487H21.9306C20.526 13.7487 19.3875 14.8081 19.3875 16.1149C19.3875 17.4218 20.526 18.4813 21.9306 18.4813H28.712C30.1165 18.4813 31.255 17.4218 31.255 16.1149C31.255 14.8081 30.1165 13.7487 28.712 13.7487Z" fill="black"/>
<path d="M44.8181 16.1149C44.8181 14.8081 43.6795 13.7487 42.2751 13.7487C40.8705 13.7487 39.7319 14.8081 39.7319 16.1149V18.4813H42.2751C43.6795 18.4813 44.8181 17.4218 44.8181 16.1149Z" fill="black"/>
<path d="M38.0366 16.1149V9.80478C38.0366 8.49788 36.898 7.43848 35.4936 7.43848C34.089 7.43848 32.9505 8.49788 32.9505 9.80478V16.1149C32.9505 17.4218 34.089 18.4812 35.4936 18.4812C36.898 18.4812 38.0366 17.4218 38.0366 16.1149Z" fill="black"/>
<path d="M35.4936 31.1015C36.898 31.1015 38.0366 30.0421 38.0366 28.7353C38.0366 27.4283 36.898 26.3689 35.4936 26.3689H32.9505V28.7353C32.9505 30.0421 34.089 31.1015 35.4936 31.1015Z" fill="black"/>
<path d="M35.4936 24.7915H42.275C43.6795 24.7915 44.8181 23.732 44.8181 22.4251C44.8181 21.1183 43.6795 20.0588 42.275 20.0588H35.4936C34.089 20.0588 32.9505 21.1183 32.9505 22.4251C32.9505 23.732 34.089 24.7915 35.4936 24.7915Z" fill="black"/>
<path d="M19.3875 22.4251C19.3875 23.732 20.526 24.7915 21.9306 24.7915C23.3351 24.7915 24.4736 23.732 24.4736 22.4251V20.0588H21.9306C20.526 20.0588 19.3875 21.1183 19.3875 22.4251Z" fill="black"/>
<path d="M26.169 22.4251V28.7353C26.169 30.0422 27.3075 31.1016 28.712 31.1016C30.1165 31.1016 31.2551 30.0422 31.2551 28.7353V22.4251C31.2551 21.1181 30.1165 20.0588 28.712 20.0588C27.3075 20.0588 26.169 21.1183 26.169 22.4251Z" fill="black"/>
</svg>
