<svg width="151" height="41" viewBox="0 0 151 41" fill="none" xmlns="http://www.w3.org/2000/svg">
<path d="M137.787 22.55V20.91C137.787 16.892 135.428 14.104 130.426 14.104C125.707 14.104 122.121 17.22 122.121 21.894C122.121 26.568 125.802 29.52 131.087 29.52C133.257 29.52 135.617 29.11 137.127 28.126V25.256C135.428 26.24 133.729 26.65 131.37 26.65C128.727 26.65 126.085 25.256 125.802 22.55V22.468H137.787V22.55ZM130.332 16.892C132.786 16.892 134.107 18.122 134.201 20.418H125.991C126.462 18.204 128.067 16.892 130.332 16.892Z" fill="black"/>
<path d="M114.949 20.3361C112.967 19.8441 112.212 19.3521 112.212 18.3681C112.212 17.3841 113.061 16.7281 114.76 16.7281C116.553 16.7281 118.063 17.3021 119.573 18.2041V15.1701C118.157 14.4321 116.553 14.0221 114.666 14.0221C111.174 14.0221 108.531 15.4981 108.531 18.4501C108.531 20.9921 110.041 22.2221 113.628 22.9601C115.798 23.4521 116.836 23.8621 116.836 25.0921C116.836 26.2401 115.704 26.7321 114.005 26.7321C112.212 26.7321 110.324 26.0761 108.72 25.0921V28.2081C110.041 28.9461 112.023 29.4381 114.005 29.4381C117.686 29.4381 120.517 28.0441 120.517 24.9281C120.611 22.3861 118.913 21.0741 114.949 20.3361Z" fill="black"/>
<path d="M99.5656 14.104C97.395 14.104 95.5075 14.596 93.9975 15.334V18.204C95.4131 17.466 97.0175 16.974 98.9994 16.974C100.887 16.974 102.303 17.712 102.303 19.27V20.5H100.415C95.4131 20.5 92.4875 21.976 92.4875 24.928C92.4875 28.29 95.7906 29.438 100.226 29.438C102.208 29.438 104.473 29.192 106.078 28.864V19.106C105.983 15.416 103.341 14.104 99.5656 14.104ZM102.208 26.896C101.548 26.978 100.698 27.06 100.132 27.06C97.7725 27.06 96.1681 26.486 96.1681 24.928C96.1681 23.452 97.9613 22.796 100.604 22.796H102.208V26.896Z" fill="black"/>
<path d="M82.3894 14.1041C80.8794 14.1041 79.275 14.4321 78.4256 14.8421V6.56006H74.5563V28.5361C76.3494 29.0281 78.52 29.5201 80.9738 29.5201C87.2969 29.5201 90.9775 26.3221 90.9775 21.5661C91.1663 16.8101 87.3913 14.1041 82.3894 14.1041ZM81.1625 26.7321C80.2188 26.7321 79.1806 26.6501 78.52 26.4041V17.7941C79.275 17.4661 80.5019 17.0561 82.0119 17.0561C84.9375 17.0561 87.2969 18.7781 87.2969 21.6481C87.2025 25.0101 84.7488 26.7321 81.1625 26.7321Z" fill="black"/>
<path d="M64.2694 14.104C61.7212 14.104 58.7956 14.596 56.4362 15.334V29.11H60.3056V17.548C61.3438 17.302 62.665 17.138 63.9862 17.138C66.1569 17.138 67.6669 17.876 67.6669 20.008V29.192H71.4419V19.68C71.4419 15.58 68.6106 14.104 64.2694 14.104Z" fill="black"/>
<path d="M49.1694 14.4321H53.0388V29.1921H49.1694V14.4321ZM51.0569 12.0541C49.83 12.0541 48.6975 11.0701 48.6975 9.92207C48.6975 8.77407 49.7356 7.87207 51.0569 7.87207C52.3781 7.87207 53.5106 8.77407 53.5106 9.92207C53.5106 11.1521 52.3781 12.0541 51.0569 12.0541Z" fill="black"/>
<path d="M37.8444 14.104C32.7481 14.104 28.9731 17.22 28.9731 21.812C28.9731 26.404 32.6538 29.52 37.8444 29.52C43.035 29.52 46.7156 26.404 46.7156 21.812C46.7156 17.22 43.035 14.104 37.8444 14.104ZM37.8444 26.732C35.0131 26.732 32.8425 24.846 32.8425 21.894C32.8425 18.86 34.9188 16.974 37.8444 16.974C40.77 16.974 42.8463 18.86 42.8463 21.894C42.8463 24.764 40.77 26.732 37.8444 26.732Z" fill="black"/>
<path d="M24.6319 26.6501C21.3288 26.6501 18.9694 24.7641 18.9694 21.8941C18.9694 18.7781 21.3288 17.1381 24.4431 17.1381C25.3869 17.1381 26.2363 17.3021 27.0856 17.5481C27.4631 16.6461 28.0294 15.9081 28.69 15.1701C27.2744 14.5141 25.8588 14.1861 24.0656 14.1861C19.0638 14.1041 15.1 17.0561 15.1 21.8121C15.1 26.5681 18.875 29.5201 24.16 29.5201C25.9531 29.5201 27.5575 29.1921 29.0675 28.4541C28.4069 27.7981 27.7463 26.9781 27.3688 26.1581C26.5194 26.4861 25.5756 26.6501 24.6319 26.6501Z" fill="black"/>
</svg>
